<svg xmlns="http://www.w3.org/2000/svg" fill="currentColor"
viewBox="0 0 24 24">
  <path d="M12 .5C5.65.5.5 5.65.5 12a11.5 11.5 0 008 10.95c.58.1.79-.25.79-.56v-2.02c-3.25.7-3.94-1.56-3.94-1.56-.53-1.34-1.3-1.7-1.3-1.7-1.06-.72.08-.71.08-.71 1.17.08 1.78 1.2 1.78 1.2 1.04 1.77 2.72 1.26 3.38.96.1-.76.4-1.26.72-1.55-2.6-.3-5.34-1.3-5.34-5.78 0-1.28.46-2.32 1.2-3.14-.12-.3-.52-1.52.12-3.17 0 0 .98-.31 3.2 1.2a11.1 11.1 0 015.82 0c2.22-1.51 3.2-1.2 3.2-1.2.64 1.65.24 2.87.12 3.17.74.82 1.2 1.86 1.2 3.14 0 4.5-2.75 5.48-5.37 5.77.42.36.8 1.08.8 2.17v3.22c0 .31.2.67.8.56A11.5 11.5 0 0023.5 12C23.5 5.65 18.35.5 12 .5z"/>
</svg>